<svg xmlns="http://www.w3.org/2000/svg" viewBox="0 0 62.42 62.54"><defs><style>.cls-1{fill:none;stroke:#fff;stroke-linecap:round;stroke-linejoin:round;stroke-width:3px;}</style></defs><title>Asset 5</title><g id="Layer_2" data-name="Layer 2"><g id="Layer_1-2" data-name="Layer 1"><path class="cls-1" d="M47.82,31.28A16.56,16.56,0,1,1,31.26,14.72,16.56,16.56,0,0,1,47.82,31.28Z"/><line class="cls-1" x1="31.26" y1="6.71" x2="31.26" y2="1.5"/><line class="cls-1" x1="1.55" y1="31.28" x2="6.77" y2="31.28"/><line class="cls-1" x1="48.58" y1="48.6" x2="52.68" y2="52.7"/><line class="cls-1" x1="9.84" y1="9.86" x2="13.94" y2="13.96"/><line class="cls-1" x1="13.94" y1="48.6" x2="9.84" y2="52.7"/><line class="cls-1" x1="52.68" y1="9.86" x2="48.58" y2="13.96"/><line class="cls-1" x1="48.58" y1="13.96" x2="52.68" y2="9.86"/><line class="cls-1" x1="9.84" y1="52.7" x2="13.94" y2="48.6"/><line class="cls-1" x1="48.53" y1="48.65" x2="52.63" y2="52.75"/><line class="cls-1" x1="9.79" y1="9.91" x2="13.89" y2="14.01"/><line class="cls-1" x1="31.21" y1="55.83" x2="31.21" y2="61.04"/><line class="cls-1" x1="31.21" y1="1.62" x2="31.21" y2="6.84"/><line class="cls-1" x1="6.71" y1="31.33" x2="1.5" y2="31.33"/><line class="cls-1" x1="60.92" y1="31.33" x2="55.7" y2="31.33"/></g></g></svg>