<svg xmlns="http://www.w3.org/2000/svg" viewBox="0 0 61.56 61.5"><defs><style>.cls-1{fill:none;stroke:#fff;stroke-linecap:round;stroke-linejoin:round;stroke-width:3px;}.cls-2{fill:#fff;}</style></defs><title>Asset 1</title><g id="Layer_2" data-name="Layer 2"><g id="Layer_1-2" data-name="Layer 1"><path class="cls-1" d="M51.33,18.33a11.19,11.19,0,0,1-2.46,22.11H12.69C6.51,40.44,1.5,36,1.5,29.86A11.2,11.2,0,0,1,10.09,19,9,9,0,0,1,18.63,7.09,9,9,0,0,1,25,9.69h0a14,14,0,0,1,26.66,5.76,25.5,25.5,0,0,1-.3,2.88Z"/><path class="cls-2" d="M17,47.48a11.59,11.59,0,0,1,3.58,7.07,3.59,3.59,0,1,1-7.17,0A11.57,11.57,0,0,1,17,47.48Z"/><path class="cls-2" d="M44.69,47.48a11.59,11.59,0,0,1,3.58,7.07,3.59,3.59,0,1,1-7.17,0A11.57,11.57,0,0,1,44.69,47.48Z"/><path class="cls-2" d="M30.85,50.84a11.58,11.58,0,0,1,3.59,7.08,3.59,3.59,0,0,1-7.17,0A11.53,11.53,0,0,1,30.85,50.84Z"/></g></g></svg>