<svg xmlns="http://www.w3.org/2000/svg" viewBox="0 0 63.72 64.62"><defs><style>.cls-1{fill:none;stroke:#fff;stroke-linecap:round;stroke-linejoin:round;stroke-width:3px;}</style></defs><title>Asset 2</title><g id="Layer_2" data-name="Layer 2"><g id="Layer_1-2" data-name="Layer 1"><path class="cls-1" d="M53.17,19a11.61,11.61,0,0,1-2.55,22.93H13.1c-6.4,0-11.6-4.56-11.6-11a11.61,11.61,0,0,1,8.91-11.29,9.49,9.49,0,0,1-.48-3A9.34,9.34,0,0,1,25.83,10h0a14.47,14.47,0,0,1,27.64,6,26.53,26.53,0,0,1-.31,3Z"/><line class="cls-1" x1="16.48" y1="49.03" x2="15.48" y2="56.12"/><line class="cls-1" x1="26.85" y1="49.03" x2="24.85" y2="63.12"/><line class="cls-1" x1="37.6" y1="49.03" x2="35.6" y2="63.12"/><line class="cls-1" x1="47.97" y1="49.03" x2="46.97" y2="56.12"/></g></g></svg>