<svg xmlns="http://www.w3.org/2000/svg" viewBox="0 0 61.56 53.81"><defs><style>.cls-1,.cls-2{fill:none;stroke:#fff;stroke-linecap:round;stroke-linejoin:round;}.cls-1{stroke-width:3px;}.cls-2{stroke-width:2px;}</style></defs><title>Asset 3</title><g id="Layer_2" data-name="Layer 2"><g id="Layer_1-2" data-name="Layer 1"><path class="cls-1" d="M12.69,40.44C6.51,40.44,1.5,36,1.5,29.86A11.19,11.19,0,0,1,10.09,19,9,9,0,0,1,25,9.69h0a14,14,0,0,1,26.66,5.76,25.5,25.5,0,0,1-.3,2.88h0a11.19,11.19,0,0,1-2.46,22.11"/><line class="cls-2" x1="30.78" y1="28.06" x2="30.78" y2="52.81"/><line class="cls-2" x1="43.16" y1="40.44" x2="18.41" y2="40.44"/><polyline class="cls-2" points="20.41 36.86 23.99 40.44 20.41 44.02"/><polyline class="cls-2" points="41.16 44.02 37.57 40.44 41.16 36.85"/><polyline class="cls-2" points="27.2 50.81 30.78 47.23 34.36 50.81"/><polyline class="cls-2" points="34.36 30.06 30.78 33.65 27.2 30.06"/><line class="cls-2" x1="39.53" y1="31.69" x2="22.03" y2="49.19"/><line class="cls-2" x1="39.53" y1="49.19" x2="22.03" y2="31.69"/></g></g></svg>