<svg xmlns="http://www.w3.org/2000/svg" viewBox="0 0 63.42 63.56"><defs><style>.cls-1{fill:#fff;}.cls-1,.cls-2{stroke:#fff;stroke-linecap:round;stroke-linejoin:round;}.cls-2{fill:none;stroke-width:3px;}</style></defs><title>Asset 7</title><g id="Layer_2" data-name="Layer 2"><g id="Layer_1-2" data-name="Layer 1"><polygon class="cls-1" points="27.17 42.97 19.79 52.18 26.87 52.27 18.69 63.06 42.97 49.62 34.45 49.57 38.96 42.97 27.17 42.97"/><path class="cls-2" d="M52.92,18.86a11.55,11.55,0,0,1-2.54,22.82H13.05C6.67,41.68,1.5,37.14,1.5,30.76a11.55,11.55,0,0,1,8.87-11.23,9.11,9.11,0,0,1-.49-3A9.3,9.3,0,0,1,25.71,10h0a14.4,14.4,0,0,1,27.51,5.94,27.4,27.4,0,0,1-.3,3Z"/></g></g></svg>